<svg width="30" height="30" viewBox="0 0 30 30" fill="none" xmlns="http://www.w3.org/2000/svg">
<g clip-path="url(#clip0_783_1131)">
<path d="M25.7273 3.675C26.3305 3.675 26.8195 3.18601 26.8195 2.58281C26.8195 1.97961 26.3305 1.49063 25.7273 1.49063C25.1241 1.49063 24.6351 1.97961 24.6351 2.58281C24.6351 3.18601 25.1241 3.675 25.7273 3.675Z" fill="#00EDCD"/>
<path opacity="0.75" d="M2.67888 21.3492L19.7086 4.31953C19.7344 4.29375 19.7578 4.25391 19.7812 4.21406C19.9617 3.90469 19.9804 3.60938 19.9523 3.21797C19.9031 2.55469 20.0601 2.19609 20.3812 1.95703C20.8054 1.63828 22.275 1.70391 25.0242 4.45313C27.7734 7.20234 27.8367 8.66953 27.5179 9.09375C27.2789 9.41484 26.9203 9.56953 26.257 9.52266C25.8656 9.49453 25.5703 9.51094 25.2609 9.69375C25.2187 9.71719 25.1812 9.74062 25.1554 9.76641L8.12576 26.7961C5.7867 29.1352 3.5531 28.7789 2.13513 27.3609L2.12576 27.3516L2.11638 27.3422C0.693727 25.9219 0.337477 23.6883 2.67888 21.3492Z" fill="#81D4FA"/>
<path opacity="0.39" d="M23.3883 5.44219C21.8977 3.95156 20.7633 3.20391 19.9453 2.86875C19.9406 2.97422 19.9407 3.09141 19.95 3.21797C19.9711 3.49687 19.9641 3.72656 19.8961 3.94687C20.6391 4.34766 21.5696 5.01328 22.711 6.08203C24.3516 7.61953 25.1344 8.77969 25.4602 9.59766C25.6758 9.51797 25.8961 9.50391 26.1586 9.51562C26.0016 8.69531 25.3102 7.36172 23.3883 5.44219Z" fill="#1D44B3"/>
<path d="M12.6914 11.3695L2.73513 21.3141C0.307002 23.7398 0.614033 26.0086 2.02497 27.4195C3.43591 28.8281 5.69997 29.1422 8.13278 26.7094L23.9062 11.025L12.6914 11.3695Z" fill="#00BFA5"/>
<path d="M10.5609 19.2234C11.2159 19.2234 11.7469 18.6925 11.7469 18.0375C11.7469 17.3825 11.2159 16.8516 10.5609 16.8516C9.90596 16.8516 9.375 17.3825 9.375 18.0375C9.375 18.6925 9.90596 19.2234 10.5609 19.2234Z" fill="#00937A"/>
<path d="M22.636 9.79687C23.2521 9.79687 23.7516 9.29739 23.7516 8.68125C23.7516 8.06511 23.2521 7.56562 22.636 7.56562C22.0198 7.56562 21.5203 8.06511 21.5203 8.68125C21.5203 9.29739 22.0198 9.79687 22.636 9.79687Z" fill="#00BFA5"/>
<path opacity="0.69" d="M17.1727 14.1164C17.5519 14.1164 17.8594 13.809 17.8594 13.4297C17.8594 13.0504 17.5519 12.743 17.1727 12.743C16.7934 12.743 16.486 13.0504 16.486 13.4297C16.486 13.809 16.7934 14.1164 17.1727 14.1164Z" fill="white"/>
<path d="M28.5563 3.32344C28.8372 3.32344 29.0649 3.09573 29.0649 2.81484C29.0649 2.53395 28.8372 2.30625 28.5563 2.30625C28.2754 2.30625 28.0477 2.53395 28.0477 2.81484C28.0477 3.09573 28.2754 3.32344 28.5563 3.32344Z" fill="#00BFA5"/>
<path d="M13.8633 17.9391C14.381 17.9391 14.8008 17.5193 14.8008 17.0016C14.8008 16.4838 14.381 16.0641 13.8633 16.0641C13.3455 16.0641 12.9258 16.4838 12.9258 17.0016C12.9258 17.5193 13.3455 17.9391 13.8633 17.9391Z" fill="#00EDCD"/>
<path d="M14.9414 14.6859C15.1407 14.6859 15.3023 14.5243 15.3023 14.325C15.3023 14.1257 15.1407 13.9641 14.9414 13.9641C14.742 13.9641 14.5804 14.1257 14.5804 14.325C14.5804 14.5243 14.742 14.6859 14.9414 14.6859Z" fill="#00EDCD"/>
<path opacity="0.6" d="M21.8438 3.43594C22.5961 3.92344 23.2805 4.51406 23.8711 5.18438" stroke="white" stroke-width="26.2188" stroke-miterlimit="10" stroke-linecap="round"/>
<path d="M23.9109 11.0062C23.7141 11.1797 23.0742 11.2945 21.3914 11.557C20.4984 11.6977 19.4062 11.8383 18.1523 11.9414C14.2219 12.2672 11.5711 11.7305 13.1437 11.0883C14.407 10.5727 18.893 10.6852 21.7008 10.7742C23.0555 10.8188 24.0656 10.8727 23.9109 11.0062Z" fill="#00EDCD"/>
<g opacity="0.6">
<path d="M2.72577 24.2578C2.32265 24.0914 2.48671 23.6297 2.72577 23.3883L18.5461 7.14844C19.507 6.15469 20.3859 5.47969 20.8781 5.94844C21.4289 6.47109 21.2531 7.40859 19.0945 9.34453L3.93515 23.6813C3.81561 23.8008 3.1289 24.4242 2.72577 24.2578Z" fill="white"/>
</g>
</g>
<defs>
<clipPath id="clip0_783_1131">
<rect width="30" height="30" fill="white"/>
</clipPath>
</defs>
</svg>
