<svg width="30" height="30" viewBox="0 0 30 30" fill="none" xmlns="http://www.w3.org/2000/svg">
<g clip-path="url(#clip0_843_3439)">
<path d="M15.4688 5.53125C15.4688 5.76562 15.2344 6 15 6C14.7656 6 14.5312 5.76562 14.5312 5.53125V0.46875C14.5312 0.1875 14.7656 0 15 0C15.2344 0 15.4688 0.1875 15.4688 0.46875V5.53125Z" fill="#B2C1C0"/>
<path d="M1.875 13.125H28.125V28.125H1.875V13.125Z" fill="#E5DEC1"/>
<path d="M28.3594 9.28125C28.125 8.8125 27.5156 8.4375 26.9531 8.4375H3C2.48438 8.4375 1.82813 8.8125 1.59375 9.28125L0.0468755 12.2813C-0.187499 12.75 0.0468755 13.125 0.5625 13.125H29.3437C29.8594 13.125 30.0938 12.75 29.8594 12.2813L28.3594 9.28125Z" fill="#D33B23"/>
<path d="M7.03125 21.0938C7.03125 21.3281 6.84375 21.5625 6.5625 21.5625H3.75C3.46875 21.5625 3.28125 21.3281 3.28125 21.0938V19.2188C3.28125 18.9844 3.46875 18.75 3.75 18.75H6.5625C6.84375 18.75 7.03125 18.9844 7.03125 19.2188V21.0938Z" fill="#D6EEF0"/>
<path d="M7.03125 16.4062C7.03125 16.6406 6.84375 16.875 6.5625 16.875H3.75C3.46875 16.875 3.28125 16.6406 3.28125 16.4062V14.5312C3.28125 14.2969 3.46875 14.0625 3.75 14.0625H6.5625C6.84375 14.0625 7.03125 14.2969 7.03125 14.5312V16.4062Z" fill="#D6EEF0"/>
<path d="M6.5625 17.1094H3.75C3.375 17.1094 3.04688 16.7812 3.04688 16.4062V14.5312C3.04688 14.1562 3.375 13.8281 3.75 13.8281H6.5625C6.9375 13.8281 7.26562 14.1562 7.26562 14.5312V16.4062C7.26562 16.7812 6.9375 17.1094 6.5625 17.1094ZM3.75 14.2969C3.60938 14.2969 3.51562 14.3906 3.51562 14.5312V16.4062C3.51562 16.5469 3.60938 16.6406 3.75 16.6406H6.5625C6.70312 16.6406 6.79688 16.5469 6.79688 16.4062V14.5312C6.79688 14.3906 6.70312 14.2969 6.5625 14.2969H3.75Z" fill="#DBB471"/>
<path d="M4.92188 14.0625H5.39062V16.875H4.92188V14.0625Z" fill="#DBB471"/>
<path d="M6.5625 22.0312H3.75C3.375 22.0312 3.04688 21.7031 3.04688 21.3281V19.4531C3.04688 19.0781 3.375 18.75 3.75 18.75H6.5625C6.9375 18.75 7.26562 19.0781 7.26562 19.4531V21.3281C7.26562 21.7031 6.9375 22.0312 6.5625 22.0312ZM3.75 19.2188C3.60938 19.2188 3.51562 19.3125 3.51562 19.4531V21.3281C3.51562 21.4688 3.60938 21.5625 3.75 21.5625H6.5625C6.70312 21.5625 6.79688 21.4688 6.79688 21.3281V19.4531C6.79688 19.3125 6.70312 19.2188 6.5625 19.2188H3.75Z" fill="#DBB471"/>
<path d="M4.92188 18.9844H5.39062V21.7969H4.92188V18.9844Z" fill="#DBB471"/>
<path d="M7.03125 25.7812C7.03125 26.0156 6.84375 26.25 6.5625 26.25H3.75C3.46875 26.25 3.28125 26.0156 3.28125 25.7812V23.9062C3.28125 23.6719 3.46875 23.4375 3.75 23.4375H6.5625C6.84375 23.4375 7.03125 23.6719 7.03125 23.9062V25.7812Z" fill="#D6EEF0"/>
<path d="M6.5625 26.7188H3.75C3.375 26.7188 3.04688 26.3906 3.04688 26.0156V24.1406C3.04688 23.7656 3.375 23.4375 3.75 23.4375H6.5625C6.9375 23.4375 7.26562 23.7656 7.26562 24.1406V26.0156C7.26562 26.3906 6.9375 26.7188 6.5625 26.7188ZM3.75 23.9062C3.60938 23.9062 3.51562 24 3.51562 24.1406V26.0156C3.51562 26.1562 3.60938 26.25 3.75 26.25H6.5625C6.70312 26.25 6.79688 26.1562 6.79688 26.0156V24.1406C6.79688 24 6.70312 23.9062 6.5625 23.9062H3.75Z" fill="#DBB471"/>
<path d="M4.92188 23.6719H5.39062V26.4844H4.92188V23.6719Z" fill="#DBB471"/>
<path d="M26.7188 21.0938C26.7188 21.3281 26.4844 21.5625 26.25 21.5625H23.4375C23.2031 21.5625 22.9688 21.3281 22.9688 21.0938V19.2188C22.9688 18.9844 23.2031 18.75 23.4375 18.75H26.25C26.4844 18.75 26.7188 18.9844 26.7188 19.2188V21.0938Z" fill="#D6EEF0"/>
<path d="M26.7188 16.4062C26.7188 16.6406 26.4844 16.875 26.25 16.875H23.4375C23.2031 16.875 22.9688 16.6406 22.9688 16.4062V14.5312C22.9688 14.2969 23.2031 14.0625 23.4375 14.0625H26.25C26.4844 14.0625 26.7188 14.2969 26.7188 14.5312V16.4062Z" fill="#D6EEF0"/>
<path d="M26.25 17.1094H23.4375C23.0625 17.1094 22.7344 16.7812 22.7344 16.4062V14.5312C22.7344 14.1562 23.0625 13.8281 23.4375 13.8281H26.25C26.625 13.8281 26.9531 14.1562 26.9531 14.5312V16.4062C26.9531 16.7812 26.625 17.1094 26.25 17.1094ZM23.4375 14.2969C23.2969 14.2969 23.2031 14.3906 23.2031 14.5312V16.4062C23.2031 16.5469 23.2969 16.6406 23.4375 16.6406H26.25C26.3906 16.6406 26.4844 16.5469 26.4844 16.4062V14.5312C26.4844 14.3906 26.3906 14.2969 26.25 14.2969H23.4375Z" fill="#DBB471"/>
<path d="M24.6094 14.0625H25.0781V16.875H24.6094V14.0625Z" fill="#DBB471"/>
<path d="M26.25 22.0312H23.4375C23.0625 22.0312 22.7344 21.7031 22.7344 21.3281V19.4531C22.7344 19.0781 23.0625 18.75 23.4375 18.75H26.25C26.625 18.75 26.9531 19.0781 26.9531 19.4531V21.3281C26.9531 21.7031 26.625 22.0312 26.25 22.0312ZM23.4375 19.2188C23.2969 19.2188 23.2031 19.3125 23.2031 19.4531V21.3281C23.2031 21.4688 23.2969 21.5625 23.4375 21.5625H26.25C26.3906 21.5625 26.4844 21.4688 26.4844 21.3281V19.4531C26.4844 19.3125 26.3906 19.2188 26.25 19.2188H23.4375Z" fill="#DBB471"/>
<path d="M24.6094 18.9844H25.0781V21.7969H24.6094V18.9844Z" fill="#DBB471"/>
<path d="M26.7188 25.7812C26.7188 26.0156 26.4844 26.25 26.25 26.25H23.4375C23.2031 26.25 22.9688 26.0156 22.9688 25.7812V23.9062C22.9688 23.6719 23.2031 23.4375 23.4375 23.4375H26.25C26.4844 23.4375 26.7188 23.6719 26.7188 23.9062V25.7812Z" fill="#D6EEF0"/>
<path d="M26.25 26.7188H23.4375C23.0625 26.7188 22.7344 26.3906 22.7344 26.0156V24.1406C22.7344 23.7656 23.0625 23.4375 23.4375 23.4375H26.25C26.625 23.4375 26.9531 23.7656 26.9531 24.1406V26.0156C26.9531 26.3906 26.625 26.7188 26.25 26.7188ZM23.4375 23.9062C23.2969 23.9062 23.2031 24 23.2031 24.1406V26.0156C23.2031 26.1562 23.2969 26.25 23.4375 26.25H26.25C26.3906 26.25 26.4844 26.1562 26.4844 26.0156V24.1406C26.4844 24 26.3906 23.9062 26.25 23.9062H23.4375Z" fill="#DBB471"/>
<path d="M24.6094 23.6719H25.0781V26.4844H24.6094V23.6719Z" fill="#DBB471"/>
<path d="M15.375 5.4375C15.1875 5.29688 14.8594 5.29688 14.625 5.4375L5.53125 12.8438C5.34375 12.9844 5.34375 13.125 5.625 13.125H24.375C24.6094 13.125 24.7031 12.9844 24.4687 12.8438L15.375 5.4375Z" fill="#F15744"/>
<path d="M22.5937 12.8437L15.375 6.84375C15.1875 6.65625 14.8594 6.65625 14.6719 6.84375L7.40625 12.8437C7.17187 12.9844 7.21874 13.125 7.49999 13.125H8.43749V28.125H21.5625V13.125H22.5C22.7344 13.125 22.8281 12.9844 22.5937 12.8437Z" fill="#F9F3D9"/>
<path d="M11.25 21.0938H18.75V28.125H11.25V21.0938Z" fill="#E5DEC1"/>
<path d="M12.1875 21.0938H17.8125V28.125H12.1875V21.0938Z" fill="#42ADE2"/>
<path d="M9.46875 17.8125C9.60938 17.8594 9.79687 17.9063 9.98437 17.9063C10.2187 17.9063 10.3125 17.8125 10.3125 17.7187C10.3125 17.625 10.2187 17.5312 9.98437 17.4844C9.65625 17.3906 9.42188 17.2031 9.42188 16.9688C9.42188 16.6406 9.70312 16.4062 10.2187 16.4062C10.4531 16.4062 10.6406 16.4531 10.7344 16.5L10.6406 16.8281C10.5469 16.7813 10.4062 16.7344 10.2187 16.7344C10.0312 16.7344 9.9375 16.8281 9.9375 16.9219C9.9375 17.0156 10.0312 17.1094 10.3125 17.1562C10.6875 17.2969 10.8281 17.4375 10.8281 17.7187C10.8281 18 10.5469 18.2812 9.98437 18.2812C9.75 18.2812 9.51562 18.2344 9.42188 18.1875L9.46875 17.8125Z" fill="#89664C"/>
<path d="M12.6094 18.1875C12.5156 18.2344 12.3281 18.2812 12.0937 18.2812C11.3906 18.2812 11.0156 17.9062 11.0156 17.3906C11.0156 16.7812 11.5312 16.4062 12.1406 16.4062C12.375 16.4062 12.5625 16.4531 12.6562 16.5L12.5625 16.8281C12.4687 16.7813 12.3281 16.7812 12.1875 16.7812C11.8125 16.7812 11.5313 16.9687 11.5313 17.3906C11.5313 17.7656 11.7656 18 12.1875 18C12.3281 18 12.4687 17.9531 12.5625 17.9531L12.6094 18.1875Z" fill="#89664C"/>
<path d="M13.3594 16.4531V17.1562H14.1094V16.4531H14.5781V18.2813H14.1094V17.5313H13.3594V18.2813H12.8906V16.4531H13.3594Z" fill="#89664C"/>
<path d="M16.875 17.3438C16.875 17.9531 16.4531 18.2812 15.8906 18.2812C15.2813 18.2812 14.9062 17.8594 14.9062 17.3438C14.9062 16.7812 15.2813 16.4062 15.8906 16.4062C16.5 16.4062 16.875 16.8281 16.875 17.3438ZM15.375 17.3438C15.375 17.7188 15.5625 17.9531 15.8906 17.9531C16.2188 17.9531 16.3594 17.6719 16.3594 17.3438C16.3594 17.0156 16.1719 16.7344 15.8437 16.7344C15.5625 16.7344 15.375 17.0156 15.375 17.3438Z" fill="#89664C"/>
<path d="M19.0312 17.3438C19.0312 17.9531 18.6094 18.2812 18.0469 18.2812C17.4375 18.2812 17.0625 17.8594 17.0625 17.3438C17.0625 16.7812 17.4375 16.4062 18.0469 16.4062C18.7031 16.4062 19.0312 16.8281 19.0312 17.3438ZM17.5781 17.3438C17.5781 17.7188 17.7656 17.9531 18.0937 17.9531C18.4219 17.9531 18.5625 17.6719 18.5625 17.3438C18.5625 17.0156 18.375 16.7344 18.0469 16.7344C17.7656 16.7344 17.5781 17.0156 17.5781 17.3438Z" fill="#89664C"/>
<path d="M19.3594 16.4531H19.8281V17.9063H20.625V18.2344H19.3594V16.4531Z" fill="#89664C"/>
<path d="M15 15.4688C16.8122 15.4688 18.2812 13.9997 18.2812 12.1875C18.2812 10.3753 16.8122 8.90625 15 8.90625C13.1878 8.90625 11.7188 10.3753 11.7188 12.1875C11.7188 13.9997 13.1878 15.4688 15 15.4688Z" fill="#DBB471"/>
<path d="M15 14.5312C16.2944 14.5312 17.3438 13.4819 17.3438 12.1875C17.3438 10.8931 16.2944 9.84375 15 9.84375C13.7056 9.84375 12.6562 10.8931 12.6562 12.1875C12.6562 13.4819 13.7056 14.5312 15 14.5312Z" fill="white"/>
<path d="M14.7656 21.0938H15.2344V28.125H14.7656V21.0938Z" fill="#E5DEC1"/>
<path d="M15 10.3125C14.7656 10.3125 14.5312 10.5469 14.5312 10.7812V12.6562C14.5312 12.8906 14.7656 13.125 15 13.125C15.2344 13.125 15.4688 12.8906 15.4688 12.6562V10.7812C15.4688 10.5469 15.2344 10.3125 15 10.3125Z" fill="#B2C1C0"/>
<path d="M15 12.1875H14.0625C13.8281 12.1875 13.5938 12.4219 13.5938 12.6562C13.5938 12.8906 13.8281 13.125 14.0625 13.125H15C15.2344 13.125 15.4688 12.8906 15.4688 12.6562C15.4688 12.4219 15.2344 12.1875 15 12.1875Z" fill="#F15744"/>
<path d="M15.4688 0.9375V4.40625C17.3438 5.90625 19.2188 1.17187 21.0938 2.67187C19.2188 5.96046e-08 17.3438 3.5625 15.4688 0.9375Z" fill="#B4D7EE"/>
<path d="M15.4219 18.8906C15.1875 18.7031 14.7656 18.7031 14.5312 18.8906C13.5469 19.5938 10.3125 21.5625 10.3125 21.5625V22.5H19.6875V21.5625C19.6875 21.5625 16.4531 19.5938 15.4219 18.8906Z" fill="#F15744"/>
<path d="M29.5312 28.125H0.46875C0.1875 28.125 0 28.3594 0 28.5938V29.5312C0 29.7656 0.1875 30 0.46875 30H29.5312C29.7656 30 30 29.7656 30 29.5312V28.5938C30 28.3594 29.7656 28.125 29.5312 28.125Z" fill="#666666"/>
<path d="M9.375 29.0625H20.625V30H9.375V29.0625Z" fill="#E8E8E8"/>
<path d="M10.3125 28.125H19.6875V29.0625H10.3125V28.125Z" fill="#D0D0D0"/>
<path d="M13.6406 25.0781H14.2969V25.4063H13.6406V25.0781Z" fill="#666666"/>
<path d="M15.7031 25.0781H16.3594V25.4063H15.7031V25.0781Z" fill="#666666"/>
</g>
<defs>
<clipPath id="clip0_843_3439">
<rect width="30" height="30" fill="white"/>
</clipPath>
</defs>
</svg>
